<?xml version="1.0" encoding="UTF-8"?>
<svg version="1.1" xmlns="http://www.w3.org/2000/svg" width="1200" height="630">
<path d="M0 0 C0.87398437 0.76763672 0.87398437 0.76763672 1.765625 1.55078125 C1.765625 2.21078125 1.765625 2.87078125 1.765625 3.55078125 C2.755625 3.88078125 3.745625 4.21078125 4.765625 4.55078125 C6.35418055 6.4357091 7.81679141 8.31331171 9.265625 10.30078125 C13.36022773 15.78096624 17.6383408 21.04843072 22.09765625 26.23535156 C28.765625 34.0031406 28.765625 34.0031406 28.765625 36.55078125 C29.755625 36.88078125 30.745625 37.21078125 31.765625 37.55078125 C31.765625 38.21078125 31.765625 38.87078125 31.765625 39.55078125 C32.28125 39.79828125 32.796875 40.04578125 33.328125 40.30078125 C35.2619361 41.29247925 37.14890372 42.37542818 39.015625 43.48828125 C49.46685051 49.4988573 61.13871846 51.3645941 72.953125 48.55078125 C87.93413798 43.92966534 101.46217895 35.46294041 114.74267578 27.34179688 C123.56197264 21.95086523 132.39563541 16.93774839 141.765625 12.55078125 C142.49007812 12.20015625 143.21453125 11.84953125 143.9609375 11.48828125 C151.69994289 8.12068058 161.5526042 7.41727714 169.671875 9.7265625 C182.86979819 14.92201361 192.53648444 28.51124223 200.765625 39.55078125 C201.59661067 40.61641821 202.43014624 41.68006954 203.265625 42.7421875 C203.70946533 43.30929443 204.15330566 43.87640137 204.6105957 44.46069336 C205.47620054 45.56650786 206.34434172 46.67034394 207.21557617 47.77172852 C210.13739061 51.53336695 212.48397985 55.38612321 214.765625 59.55078125 C198.35321103 69.28663292 198.35321103 69.28663292 192.453125 72.42578125 C186.20502137 75.77468825 180.1776809 79.48853931 174.11254883 83.15429688 C168.85468702 86.32339189 163.55954898 89.37054207 158.140625 92.2578125 C154.74028336 94.10898533 151.44592286 96.12457475 148.13671875 98.1328125 C145.29888412 99.82990306 142.40927255 101.41503873 139.5078125 103 C137.23959065 104.28274084 135.00491477 105.60051837 132.7734375 106.9453125 C117.86353776 115.91282482 117.86353776 115.91282482 109.765625 118.55078125 C108.569375 118.96328125 107.373125 119.37578125 106.140625 119.80078125 C97.60769584 121.69698773 90.65824156 120.1707798 82.765625 116.55078125 C74.44327763 111.23838949 67.34645356 103.67455616 61.765625 95.55078125 C61.765625 94.89078125 61.765625 94.23078125 61.765625 93.55078125 C61.105625 93.55078125 60.445625 93.55078125 59.765625 93.55078125 C58.04270778 91.47914322 56.42351942 89.40461047 54.828125 87.23828125 C51.60147172 82.81867917 51.60147172 82.81867917 47.94921875 78.7578125 C46.765625 77.55078125 46.765625 77.55078125 46.765625 75.55078125 C45.8684375 75.14085937 45.8684375 75.14085937 44.953125 74.72265625 C42.83729611 73.58917649 41.47738618 72.45904989 39.765625 70.80078125 C28.4914482 60.92682341 14.6100157 57.98958887 0.078125 58.11328125 C-1.16412842 58.12085449 -2.40638184 58.12842773 -3.6862793 58.13623047 C-12.84463917 58.30057591 -20.62814204 59.26494999 -29.234375 62.55078125 C-30.50246109 63.00300557 -31.77069568 63.45481365 -33.0390625 63.90625 C-40.23039674 66.55459626 -46.86743336 69.84497663 -53.41796875 73.83984375 C-56.08753697 75.46157868 -58.7910976 76.95657445 -61.546875 78.42578125 C-66.6855102 81.19960315 -71.68405097 84.17801699 -76.66918945 87.21630859 C-79.91634179 89.18875786 -83.1872798 91.09315966 -86.515625 92.92578125 C-92.7265702 96.35098342 -98.7974276 100.01089493 -104.88671875 103.64648438 C-110.44045598 106.94670094 -116.04127885 110.12083146 -121.73706055 113.16992188 C-124.27160933 114.57136951 -126.72181189 116.06964793 -129.171875 117.61328125 C-140.12107927 124.27039745 -150.42249949 127.63220568 -163.234375 126.55078125 C-169.07341485 124.98233843 -173.36993052 122.26057295 -177.234375 117.55078125 C-177.564375 116.56078125 -177.894375 115.57078125 -178.234375 114.55078125 C-179.224375 114.22078125 -180.214375 113.89078125 -181.234375 113.55078125 C-182.86610381 111.62451655 -184.37029097 109.7070564 -185.859375 107.67578125 C-186.75793733 106.48218575 -187.65769797 105.28949151 -188.55859375 104.09765625 C-189.23414307 103.19950195 -189.23414307 103.19950195 -189.92333984 102.28320312 C-196.42243515 93.69519934 -203.44957027 85.96895467 -211.234375 78.55078125 C-211.77707031 78.02613281 -212.31976562 77.50148438 -212.87890625 76.9609375 C-226.86521246 64.34504746 -244.7116836 62.98974878 -262.609375 63.61328125 C-280.78357484 65.42611179 -297.96518163 73.59509722 -313.41796875 82.875 C-316.09373203 84.4670977 -318.80138026 85.95801308 -321.546875 87.42578125 C-326.6976608 90.20557041 -331.69366546 93.20828217 -336.69775391 96.24047852 C-340.22944772 98.37244286 -343.77895259 100.42458314 -347.421875 102.36328125 C-352.80422745 105.24409058 -358.01114834 108.3941439 -363.234375 111.55078125 C-369.35788487 115.24887665 -375.47658382 118.90852469 -381.8046875 122.25 C-383.52868123 123.17297414 -385.23011766 124.13864681 -386.9140625 125.1328125 C-399.4425177 132.42628996 -411.19868442 134.03491804 -425.296875 130.42578125 C-438.7215611 125.89277036 -448.06045929 117.07956997 -456.39453125 105.9609375 C-459.30545167 102.14769355 -462.4212553 98.50425054 -465.51171875 94.8359375 C-467.234375 92.55078125 -467.234375 92.55078125 -467.234375 90.55078125 C-467.894375 90.55078125 -468.554375 90.55078125 -469.234375 90.55078125 C-471.214375 87.08578125 -471.214375 87.08578125 -473.234375 83.55078125 C-469.83359608 81.50175078 -466.4167171 79.48394301 -462.984375 77.48828125 C-459.3131473 75.35089157 -455.64654732 73.20637647 -451.98828125 71.046875 C-438.74121586 63.22763998 -438.74121586 63.22763998 -432.40234375 59.7578125 C-429.65583422 58.22867476 -426.9465528 56.63997451 -424.234375 55.05078125 C-420.04534566 52.59660245 -415.83055181 50.20519746 -411.578125 47.86328125 C-408.77588653 46.29402771 -406.00552366 44.67428248 -403.234375 43.05078125 C-399.04534566 40.59660245 -394.83055181 38.20519746 -390.578125 35.86328125 C-387.77588653 34.29402771 -385.00552366 32.67428248 -382.234375 31.05078125 C-378.04534566 28.59660245 -373.83055181 26.20519746 -369.578125 23.86328125 C-366.77588653 22.29402771 -364.00552366 20.67428248 -361.234375 19.05078125 C-357.03979329 16.59334954 -352.82240195 14.19413532 -348.55859375 11.859375 C-346.85705811 10.90136754 -345.17451707 9.90940799 -343.50390625 8.8984375 C-322.9820977 -3.49055392 -299.71900993 -10.2073714 -275.74609375 -5.1328125 C-258.04562119 -0.31542106 -247.37590331 12.21326825 -236.7421875 26.28515625 C-233.58402558 30.44154504 -230.22347646 34.42179111 -226.8515625 38.40625 C-225.234375 40.55078125 -225.234375 40.55078125 -225.234375 42.55078125 C-224.574375 42.55078125 -223.914375 42.55078125 -223.234375 42.55078125 C-222.5125 43.29328125 -221.790625 44.03578125 -221.046875 44.80078125 C-213.75776819 51.92790791 -203.32059362 55.38052214 -193.234375 55.80078125 C-181.67878162 55.5899827 -172.83502993 51.65289244 -163.234375 45.55078125 C-161.7417571 44.7042966 -160.24223834 43.86980054 -158.734375 43.05078125 C-155.2013825 41.10507524 -151.71447111 39.08962544 -148.234375 37.05078125 C-144.04534566 34.59660245 -139.83055181 32.20519746 -135.578125 29.86328125 C-131.82696055 27.76262916 -128.12641182 25.57609182 -124.421875 23.39453125 C-121.97029245 21.97645899 -119.50832574 20.59532491 -117.02734375 19.23046875 C-112.73985407 16.85759745 -108.53367696 14.36319853 -104.33105469 11.84375 C-95.12643906 6.32937487 -85.91401421 1.18681898 -76.234375 -3.44921875 C-74.4837846 -4.36475741 -72.7337405 -5.28134179 -70.984375 -6.19921875 C-48.37948534 -17.46460638 -20.27956023 -14.38063155 0 0 Z " fill="currentColor" transform="translate(946.234375,137.44921875)"/>
<path d="M0 0 C0 0.66 0 1.32 0 2 C0.59425781 2.25007813 1.18851562 2.50015625 1.80078125 2.7578125 C4.30214604 4.17066153 5.49506466 5.56911124 7.1875 7.875 C7.69667969 8.55304688 8.20585937 9.23109375 8.73046875 9.9296875 C9.98995557 11.98361986 10.56190327 13.64588985 11 16 C13.62361607 13.45134439 15.96674157 11.04371108 18.1875 8.125 C25.92726149 -1.28364757 39.00472601 -7.74831924 51 -9 C63.91881126 -9.90206163 76.90211554 -7.59667237 87.19140625 0.78515625 C101.29227923 14.24386423 105.59185761 31.28245352 106.05466461 50.23906708 C106.13864098 56.40528937 106.11493561 62.57167964 106.09765625 68.73828125 C106.09578725 70.71510278 106.09436563 72.69192478 106.09336853 74.66874695 C106.0895813 79.8290641 106.07978417 84.98935234 106.06866455 90.1496582 C106.0583681 95.43245045 106.0538534 100.71524745 106.04882812 105.99804688 C106.03815787 116.33204383 106.02112799 126.6660195 106 137 C100.89136104 137.0246501 95.78275641 137.04283607 90.67407227 137.05493164 C88.93480832 137.05997204 87.19554864 137.0668043 85.45629883 137.07543945 C82.96174063 137.08751792 80.46723827 137.09323108 77.97265625 137.09765625 C77.19036148 137.10281754 76.40806671 137.10797882 75.60206604 137.11329651 C73.73432886 137.11349226 71.86670796 137.06199694 70 137 C68.1553381 135.1553381 68.86936751 132.55138584 68.85655212 130.09587097 C68.8573452 128.8227581 68.8573452 128.8227581 68.8581543 127.52392578 C68.85467987 126.63436691 68.85120544 125.74480804 68.84762573 124.82829285 C68.840252 122.88795731 68.83491528 120.94761324 68.83133507 119.007267 C68.8241814 115.92924394 68.80851946 112.85138142 68.78999329 109.77340698 C68.7374981 101.01855788 68.68961973 92.26379186 68.67407227 83.50878906 C68.66394643 78.1582207 68.63449577 72.80804894 68.59275246 67.45763779 C68.58049267 65.42368456 68.57531196 63.38967513 68.57755089 61.35568619 C68.58736234 49.5234073 68.47274519 39.50782228 62.25 29.0625 C57.34330701 24.56469809 51.66759278 22.22991699 45 22 C37.62491763 22.56917713 32.35288812 24.85675502 27 30 C26.67 30.66 26.34 31.32 26 32 C25.34 32 24.68 32 24 32 C23.79985039 32.8522541 23.79985039 32.8522541 23.59565735 33.72172546 C23 36 23 36 22.26408386 38.06697083 C19.04179332 47.7404015 19.52035738 57.68774867 19.48828125 67.76171875 C19.47141164 69.76383042 19.45325837 71.76593164 19.43388367 73.76802063 C19.38662534 79.00394425 19.35666019 84.2398255 19.33044434 89.47589111 C19.30051617 94.83231976 19.25402828 100.18860279 19.20898438 105.54492188 C19.12322644 116.02988798 19.0572925 126.51483967 19 137 C7.12 137 -4.76 137 -17 137 C-17.029729 133.04229614 -17.029729 133.04229614 -17.06005859 129.00463867 C-17.12717466 120.25549473 -17.20481036 111.50646643 -17.28752708 102.75745678 C-17.33732448 97.45657622 -17.38365517 92.15571401 -17.421875 86.85473633 C-17.45893795 81.73234101 -17.50535311 76.61010564 -17.55806351 71.48784828 C-17.57649641 69.54041685 -17.59164464 67.59295128 -17.60334396 65.64546776 C-16.99162227 45.55983137 -16.99162227 45.55983137 -25.5625 28.25 C-26.366875 27.5075 -27.17125 26.765 -28 26 C-28.66 25.34 -29.32 24.68 -30 24 C-37.0848131 21.78599591 -43.97537277 21.43306848 -51 24 C-52.34462648 24.98476261 -53.67989831 25.98259679 -55 27 C-55.66 27 -56.32 27 -57 27 C-57 27.66 -57 28.32 -57 29 C-57.5775 29.53625 -58.155 30.0725 -58.75 30.625 C-65.37678051 37.61993498 -66.14168861 45.71196688 -66.20532227 54.92114258 C-66.21522186 55.80944763 -66.22512146 56.69775269 -66.23532104 57.61297607 C-66.26683085 60.54013431 -66.29165181 63.46730875 -66.31640625 66.39453125 C-66.33698486 68.42763178 -66.35798157 70.46072812 -66.37937927 72.49382019 C-66.43450622 77.83833415 -66.4839568 83.18288612 -66.53222656 88.52746582 C-66.58251012 93.98383965 -66.63816038 99.44015845 -66.69335938 104.89648438 C-66.80082626 115.59761093 -66.90180054 126.29878438 -67 137 C-78.88 137 -90.76 137 -103 137 C-103.02505615 133.80505859 -103.0501123 130.61011719 -103.07592773 127.31835938 C-103.16033452 116.6256044 -103.24888368 105.9328864 -103.33933926 95.24018097 C-103.39392747 88.77292735 -103.44722615 82.30566907 -103.49731445 75.83837891 C-103.79677687 34.90966382 -103.79677687 34.90966382 -105 -6 C-103.95351791 -6.00410385 -102.90703583 -6.0082077 -101.82884216 -6.01243591 C-101.15529977 -6.01508737 -100.48175737 -6.01773882 -99.7878046 -6.02047062 C-98.31771914 -6.02621515 -96.84763335 -6.03187742 -95.37754726 -6.03745937 C-92.33754906 -6.04908444 -89.29757413 -6.0612084 -86.25759888 -6.07791138 C-84.20430473 -6.08912296 -82.1509772 -6.09370191 -80.09765625 -6.09765625 C-79.06892395 -6.1053302 -79.06892395 -6.1053302 -78.01940918 -6.11315918 C-76.34584769 -6.11347054 -74.6724042 -6.06222837 -73 -6 C-71.45049732 -4.45049732 -71.78344807 -2.90009406 -71.68359375 -0.74609375 C-71.64169922 0.10791016 -71.59980469 0.96191406 -71.55664062 1.84179688 C-71.51732422 2.73962891 -71.47800781 3.63746094 -71.4375 4.5625 C-71.39431641 5.46419922 -71.35113281 6.36589844 -71.30664062 7.29492188 C-71.20021858 9.52978485 -71.09820012 11.76476308 -71 14 C-70.63237549 13.45786865 -70.26475098 12.9157373 -69.88598633 12.35717773 C-62.70197183 1.93697741 -51.37091889 -5.53544719 -39 -8.375 C-25.21783672 -10.51057482 -11.21478666 -8.9073195 0 0 Z " fill="currentColor" transform="translate(144,313)"/>
<path d="M0 0 C12.21 0 24.42 0 37 0 C37.33 65.67 37.66 131.34 38 199 C27.11 199 16.22 199 5 199 C4.01 188.605 4.01 188.605 3 178 C2.01 179.65 1.02 181.3 0 183 C-9.33019413 194.17144686 -21.37959183 200.83896021 -35.95849609 202.18017578 C-50.4331025 203.126162 -62.90742622 200.26580993 -75 192 C-75.59941406 191.65710938 -76.19882812 191.31421875 -76.81640625 190.9609375 C-90.56384218 182.60402749 -98.53919099 163.93754761 -102.18408203 149.08935547 C-103.49219111 143.11719656 -103.59806663 137.10879671 -103.52148438 131.02050781 C-103.49999396 128.99943237 -103.52145398 126.98190829 -103.546875 124.9609375 C-103.58992889 104.19717631 -95.89024465 84.69910483 -81.703125 69.546875 C-68.82766472 57.58456793 -53.77732394 52.40277869 -36.32421875 52.75390625 C-21.85722698 53.82490564 -11.20972582 58.79027418 -1 69 C-0.67 46.23 -0.34 23.46 0 0 Z M-47 86 C-48.5159375 86.7734375 -48.5159375 86.7734375 -50.0625 87.5625 C-60.14046923 95.92507022 -64.28274009 107.32116513 -66 120 C-66.86808738 135.50871491 -64.98589455 150.10592241 -55.3125 162.8125 C-50.60661385 167.99632771 -42.95516407 171.68626137 -35.99609375 172.23828125 C-24.80380376 172.47170991 -16.94861225 170.64138492 -8.6875 162.86328125 C0.04464971 153.22153261 0.18680569 141.54760198 0.18530273 129.20385742 C0.1874832 127.20292053 0.20598312 125.20202326 0.22460938 123.20117188 C0.24303148 110.91363104 -0.54306416 99.59160998 -9.25 90.25 C-16.62646512 83.28687128 -24.50546789 81.64333843 -34.4140625 81.71484375 C-39.315253 82.10458984 -42.81454179 83.52005075 -47 86 Z " fill="currentColor" transform="translate(655,251)"/>
<path d="M0 0 C11.87310871 8.89602359 18.96575278 21.34634675 21.71237564 35.9108429 C22.85086047 44.18021781 22.35484905 52.72208208 22.29296875 61.046875 C22.28736463 63.27174593 22.2830984 65.4966206 22.28010559 67.72149658 C22.26872105 73.54116262 22.23930955 79.36059949 22.20599365 85.18017578 C22.1751542 91.1331065 22.16157074 97.0860747 22.14648438 103.0390625 C22.11443314 114.69282456 22.0617181 126.34635726 22 138 C10.12 138 -1.76 138 -14 138 C-14.01458252 135.5036499 -14.02916504 133.0072998 -14.04418945 130.43530273 C-14.0948113 122.13318498 -14.16145272 113.83124938 -14.23571491 105.52931118 C-14.28020301 100.50206074 -14.319505 95.47488734 -14.34643555 90.44750977 C-14.3726857 85.58438701 -14.41323673 80.72156423 -14.46318626 75.85862923 C-14.47970964 74.01499258 -14.4913134 72.17130422 -14.49761391 70.32760429 C-14.57682776 47.00229754 -14.57682776 47.00229754 -25.5625 27.125 C-31.43086163 22.68611107 -39.73967627 22.55424005 -46.75 23.5 C-55.56168258 25.47086695 -60.79055644 31.2452688 -65.6875 38.5 C-68.43731161 43.73773641 -68.16584851 49.23609477 -68.20532227 55.01293945 C-68.21522186 55.91099808 -68.22512146 56.8090567 -68.23532104 57.73432922 C-68.26683363 60.69395335 -68.29165292 63.65359352 -68.31640625 66.61328125 C-68.33698462 68.66880198 -68.35798133 70.72431857 -68.37937927 72.77983093 C-68.43450871 78.18352901 -68.4839582 83.5872647 -68.53222656 88.99102783 C-68.58250829 94.50772438 -68.63815951 100.02436648 -68.69335938 105.54101562 C-68.8008293 116.36063224 -68.90180266 127.18029525 -69 138 C-81.54 138 -94.08 138 -107 138 C-107 90.81 -107 43.62 -107 -5 C-96.44 -5 -85.88 -5 -75 -5 C-74.34 1.6 -73.68 8.2 -73 15 C-71.02 12.36 -69.04 9.72 -67 7 C-48.55973134 -9.47510134 -21.31394954 -13.65318493 0 0 Z " fill="currentColor" transform="translate(515,312)"/>
<path d="M0 0 C4.57329225 4.42896745 8.25417331 9.25872601 11 15 C11.34933594 15.71542969 11.69867188 16.43085938 12.05859375 17.16796875 C17.55344367 29.50622149 17.30678019 43.10848946 17.37890625 56.359375 C17.39514808 58.00019252 17.41233457 59.64100092 17.43040466 61.28179932 C17.47566174 65.56876311 17.51065737 69.8557409 17.54260254 74.14282227 C17.59482694 80.98582046 17.66088398 87.82867938 17.73081779 94.67151642 C17.75310828 97.02511936 17.7697264 99.37870675 17.78553772 101.73236084 C17.87239084 112.18402389 18.3584918 122.56652364 19 133 C8.11 133 -2.78 133 -14 133 C-16.25 122.875 -16.25 122.875 -16 118 C-16.49628906 118.44730469 -16.99257813 118.89460937 -17.50390625 119.35546875 C-19.64769152 121.26331561 -21.81754696 123.13655079 -24 125 C-24.79083984 125.69416016 -24.79083984 125.69416016 -25.59765625 126.40234375 C-37.02481026 135.54991205 -52.90675108 137.16701768 -67 136 C-80.88641808 133.42571699 -89.96106996 126.39954682 -98.28125 115.2890625 C-104.10585699 106.24327134 -105.27231374 94.69941473 -103.30859375 84.359375 C-101.55563705 76.62151742 -99.02149948 70.23404004 -94 64 C-93.2575 62.96875 -92.515 61.9375 -91.75 60.875 C-81.66153595 50.3279694 -68.94167086 45.49582357 -55.0324707 42.45898438 C-53.66243832 42.14959568 -52.29859263 41.81160443 -50.94213867 41.44726562 C-44.42263553 39.77358889 -38.13977127 39.76996139 -31.4375 39.875 C-29.78137695 39.88853516 -29.78137695 39.88853516 -28.09179688 39.90234375 C-25.3942983 39.92569872 -22.69726923 39.95844946 -20 40 C-20.52382677 32.55462746 -21.39714412 27.06683699 -26 21 C-32.5352068 15.45928119 -39.87292087 14.62992153 -48.125 14.6875 C-48.9610376 14.69241455 -49.7970752 14.6973291 -50.65844727 14.70239258 C-61.44148751 14.90443859 -70.70467228 17.56372903 -80.5390625 21.9140625 C-83 23 -83 23 -86 24 C-93 5.30964467 -93 5.30964467 -93 -1 C-64.31152551 -14.13838543 -26.89203585 -21.38580547 0 0 Z M-63.4375 76.5 C-66.91182015 82.05891224 -67.85846364 87.55622354 -67 94 C-65.0156177 100.69326786 -62.21294782 104.39649292 -56.26171875 108.07421875 C-50.60573864 110.38936087 -43.10875189 109.82989769 -37.29296875 108.27734375 C-29.43132811 104.96929394 -23.66868078 99.71738428 -20 92 C-19.13377005 88.43641988 -18.88188927 85.14182046 -18.90234375 81.48046875 C-18.90556641 80.45888672 -18.90878906 79.43730469 -18.91210938 78.38476562 C-18.92048828 77.32966797 -18.92886719 76.27457031 -18.9375 75.1875 C-18.94201172 74.11306641 -18.94652344 73.03863281 -18.95117188 71.93164062 C-18.96292271 69.28770317 -18.97935213 66.64388048 -19 64 C-35.38043793 63.32451802 -51.27203758 64.02260265 -63.4375 76.5 Z " fill="currentColor" transform="translate(368,317)"/>
<path d="M0 0 C10.56 0 21.12 0 32 0 C32.66 7.92 33.32 15.84 34 24 C35.98 20.7 37.96 17.4 40 14 C41.32 12.68 42.64 11.36 44 10 C44.66 10 45.32 10 46 10 C46 9.34 46 8.68 46 8 C58.10605697 1.17424448 67.07200417 0 81 0 C81.33 10.89 81.66 21.78 82 33 C72.5625 32.75 72.5625 32.75 69.64672852 32.63964844 C60.9848216 32.53005998 53.94901615 35.34826931 47.56640625 41.2421875 C40.39939551 49.28496764 38.71188129 59.10208923 38.68115234 69.54907227 C38.66608391 70.7507328 38.66608391 70.7507328 38.65071106 71.97666931 C38.6201453 74.58990852 38.60291893 77.2030466 38.5859375 79.81640625 C38.56720437 81.64201207 38.54762939 83.46760942 38.5272522 85.29319763 C38.47615145 90.07210273 38.43640834 94.85103583 38.39910889 99.63006592 C38.35185211 105.37804552 38.29034966 111.12588858 38.23126221 116.87375641 C38.14331917 125.58244848 38.07336234 134.29111796 38 143 C25.79 143 13.58 143 1 143 C0.67 95.81 0.34 48.62 0 0 Z " fill="currentColor" transform="translate(776,307)"/>
<path d="M0 0 C12.21 0 24.42 0 37 0 C37 47.19 37 94.38 37 143 C24.79 143 12.58 143 0 143 C0 95.81 0 48.62 0 0 Z " fill="currentColor" transform="translate(716,307)"/>
<path d="M0 0 C11.88 0 23.76 0 36 0 C36 47.19 36 94.38 36 143 C24.12 143 12.24 143 0 143 C0 95.81 0 48.62 0 0 Z " fill="currentColor" transform="translate(873,307)"/>
<path d="M0 0 C1.94480913 0.51981196 1.94480913 0.51981196 3.75 -0.6875 C6.86406682 -2.15294321 8.61873453 -1.68431596 11.875 -0.6875 C14.93662534 1.89787251 16.60314166 3.49692498 17.875 7.3125 C17.94529121 9.88515818 17.96870832 12.42891431 17.9375 15 C17.93298828 15.70189453 17.92847656 16.40378906 17.92382812 17.12695312 C17.91206927 18.85550538 17.89413454 20.58401365 17.875 22.3125 C13.125 23.4375 13.125 23.4375 10.875 22.3125 C10.545 16.7025 10.215 11.0925 9.875 5.3125 C8.555 4.9825 7.235 4.6525 5.875 4.3125 C2.85406785 7.33343215 3.40823166 10.87622072 3.25 14.9375 C3.21132813 15.73929688 3.17265625 16.54109375 3.1328125 17.3671875 C3.03846069 19.34857556 2.95563785 21.33050645 2.875 23.3125 C1.20888095 23.355221 -0.45882885 23.35313832 -2.125 23.3125 C-4.24425604 21.19324396 -3.54331017 16.6928907 -3.6875 13.75 C-3.73068359 12.94369141 -3.77386719 12.13738281 -3.81835938 11.30664062 C-3.92475262 9.30881195 -4.02540888 7.3106793 -4.125 5.3125 C-6.01679203 4.6310177 -6.01679203 4.6310177 -8.125 4.3125 C-11.14593215 7.33343215 -10.59176834 10.87622072 -10.75 14.9375 C-10.78867187 15.73929688 -10.82734375 16.54109375 -10.8671875 17.3671875 C-10.96153931 19.34857556 -11.04436215 21.33050645 -11.125 23.3125 C-13.435 22.9825 -15.745 22.6525 -18.125 22.3125 C-18.125 14.7225 -18.125 7.1325 -18.125 -0.6875 C-15.485 -0.6875 -12.845 -0.6875 -10.125 -0.6875 C-6.81700735 -2.34149632 -3.41607144 -1.10519958 0 0 Z " fill="currentColor" transform="translate(750.125,506.6875)"/>
<path d="M0 0 C0.99 0.66 1.98 1.32 3 2 C3.70125 1.484375 4.4025 0.96875 5.125 0.4375 C8.70226119 -1.3511306 10.22365304 -1.20521711 14 0 C16.81005071 2.27841949 17.84898818 3.54696453 19 7 C19.07973476 8.33525717 19.10771338 9.67412083 19.09765625 11.01171875 C19.09443359 11.76904297 19.09121094 12.52636719 19.08789062 13.30664062 C19.07532227 14.48516602 19.07532227 14.48516602 19.0625 15.6875 C19.05798828 16.48478516 19.05347656 17.28207031 19.04882812 18.10351562 C19.0370585 20.06904257 19.01912348 22.03453085 19 24 C17.33388095 24.042721 15.66617115 24.04063832 14 24 C11.96428714 21.96428714 12.63123456 17.87432194 12.5 15.0625 C12.45708764 9.87297382 12.45708764 9.87297382 11 5 C8.52733235 5.34444881 8.52733235 5.34444881 6 6 C4.414131 9.171738 4.62133555 12.63513822 4.4375 16.125 C4.39431641 16.87910156 4.35113281 17.63320313 4.30664062 18.41015625 C4.2005168 20.27321888 4.09974999 22.13658524 4 24 C2.02 23.67 0.04 23.34 -2 23 C-2.33 17.06 -2.66 11.12 -3 5 C-4.65 5.33 -6.3 5.66 -8 6 C-9.585869 9.171738 -9.37866445 12.63513822 -9.5625 16.125 C-9.60568359 16.87910156 -9.64886719 17.63320313 -9.69335938 18.41015625 C-9.7994832 20.27321888 -9.90025001 22.13658524 -10 24 C-11.66611905 24.042721 -13.33382885 24.04063832 -15 24 C-16 23 -16 23 -16.11352539 20.77514648 C-16.10828857 19.81680908 -16.10305176 18.85847168 -16.09765625 17.87109375 C-16.09443359 16.83662109 -16.09121094 15.80214844 -16.08789062 14.73632812 C-16.07951172 13.64771484 -16.07113281 12.55910156 -16.0625 11.4375 C-16.05798828 10.34501953 -16.05347656 9.25253906 -16.04882812 8.12695312 C-16.03699826 5.41791505 -16.02051543 2.70898401 -16 0 C-13.33333333 0 -10.66666667 0 -8 0 C-5.08931154 -1.45534423 -3.1172005 -0.69977971 0 0 Z " fill="currentColor" transform="translate(521,506)"/>
<path d="M0 0 C2.31 0.33 4.62 0.66 7 1 C7 12.22 7 23.44 7 35 C2 35 2 35 0 34 C-0.99 34.495 -0.99 34.495 -2 35 C-6.19491568 35.40335728 -8.5250009 35.24198067 -12.3125 33.3125 C-15.27614892 30.76238349 -16.25482634 29.80866538 -17 26 C-16.9820314 20.47465417 -16.80504482 16.24444803 -13 12 C-8.80915552 9.55534072 -5.65977696 10.08631824 -1 11 C-0.67 7.37 -0.34 3.74 0 0 Z M-10 18 C-10.43695626 20.44120026 -10.43695626 20.44120026 -10.3125 23.0625 C-10.30863281 23.94035156 -10.30476562 24.81820312 -10.30078125 25.72265625 C-10.20899334 28.19662769 -10.20899334 28.19662769 -8 30 C-5 30.41666667 -5 30.41666667 -2 30 C0.08133467 26.877998 0.2737822 26.06733011 0.25 22.5 C0.25515625 21.7265625 0.2603125 20.953125 0.265625 20.15625 C0.12738062 17.70486156 0.12738062 17.70486156 -2 15 C-5.88680542 14.40202994 -7.63003266 14.8740948 -10 18 Z " fill="currentColor" transform="translate(871,495)"/>
<path d="M0 0 C2.5 0.125 2.5 0.125 3.5 1.125 C3.57226502 2.97787502 3.5838122 4.83333878 3.5625 6.6875 C3.55347656 7.69941406 3.54445313 8.71132813 3.53515625 9.75390625 C3.52355469 10.53636719 3.51195312 11.31882812 3.5 12.125 C4.08910156 11.79371094 4.67820312 11.46242188 5.28515625 11.12109375 C8.68998326 9.58982234 10.94216446 10.18872749 14.5 11.125 C20.27264834 16.01920186 20.27264834 16.01920186 20.73828125 20.33203125 C20.93954579 27.39747593 20.93954579 27.39747593 18.6875 31.125 C15.70338771 33.85333123 14.16253543 35.07681561 10.0625 35.375 C6.84018069 35.14887233 5.16681938 34.8317644 2.5 33.125 C2.5 33.785 2.5 34.445 2.5 35.125 C0.52 34.795 -1.46 34.465 -3.5 34.125 C-3.52465288 29.44360746 -3.54283739 24.76225241 -3.55493164 20.08081055 C-3.55997157 18.48705386 -3.5668035 16.89330181 -3.57543945 15.29956055 C-3.58751999 13.01349747 -3.59323155 10.72749533 -3.59765625 8.44140625 C-3.60281754 7.72473282 -3.60797882 7.00805939 -3.61329651 6.26966858 C-3.61349263 4.55436328 -3.56192007 2.83918734 -3.5 1.125 C-2.5 0.125 -2.5 0.125 0 0 Z M3.5 18.125 C3.06304374 20.56620026 3.06304374 20.56620026 3.1875 23.1875 C3.19136719 24.06535156 3.19523438 24.94320312 3.19921875 25.84765625 C3.29100666 28.32162769 3.29100666 28.32162769 5.5 30.125 C8.45769177 30.62510524 8.45769177 30.62510524 11.5 30.125 C13.7288277 28.34193784 14.37382488 26.9959588 14.78125 24.18359375 C14.91517561 21.15352674 14.88214697 18.76861595 13.3125 16.125 C9.28495086 13.90290392 6.2302826 14.53416987 3.5 18.125 Z " fill="currentColor" transform="translate(546.5,494.875)"/>
<path d="M0 0 C0.33 0.66 0.66 1.32 1 2 C1.66 1.484375 2.32 0.96875 3 0.4375 C7.18574695 -1.56817042 9.47990711 -0.8891986 14 0 C14.66 0.33 15.32 0.66 16 1 C15.67 2.32 15.34 3.64 15 5 C12.36 5 9.72 5 7 5 C7.71004465 8.27856999 7.71004465 8.27856999 10.9375 9.5625 C11.948125 10.036875 12.95875 10.51125 14 11 C16 13 16 13 16.4375 16.9375 C16.34044762 20.08313902 16.3099337 20.6900663 14 23 C9.97014368 24.34328544 7.25578945 24.40531328 3 24 C0.5 22.5 0.5 22.5 -1 21 C-0.67 20.01 -0.34 19.02 0 18 C3.3 18.33 6.6 18.66 10 19 C9.67 17.68 9.34 16.36 9 15 C7.01753602 13.96567096 5.01586684 12.96761608 3 12 C0.55378827 9.39070749 0 8.62968776 0 5 C-2.02045442 5.60183749 -4.02111039 6.27306096 -6 7 C-7.52106634 10.04213267 -7.37429338 13.28047572 -7.5625 16.625 C-7.60568359 17.33140625 -7.64886719 18.0378125 -7.69335938 18.765625 C-7.79944751 20.51018537 -7.90022889 22.25506697 -8 24 C-9.98 23.67 -11.96 23.34 -14 23 C-14 15.41 -14 7.82 -14 0 C-11.69 0 -9.38 0 -7 0 C-4.30234372 -1.34882814 -2.84835666 -0.80338265 0 0 Z " fill="currentColor" transform="translate(692,506)"/>
<path d="M0 0 C2.875 -0.125 2.875 -0.125 6 0 C8.28957049 2.28957049 8.82285139 3.90245091 9.875 6.9453125 C10.22046875 7.94046875 10.5659375 8.935625 10.921875 9.9609375 C11.45554687 11.52714844 11.45554687 11.52714844 12 13.125 C12.53367187 14.65640625 12.53367187 14.65640625 13.078125 16.21875 C14.9903306 21.76985431 16.68272707 27.27809573 18 33 C14.535 32.505 14.535 32.505 11 32 C10.01 29.03 9.02 26.06 8 23 C5.03 23.33 2.06 23.66 -1 24 C-1.99 26.97 -2.98 29.94 -4 33 C-6.31 32.67 -8.62 32.34 -11 32 C-8.5180078 22.75145925 -5.59414518 13.88756307 -2 5 C-1.62101563 4.05253906 -1.24203125 3.10507812 -0.8515625 2.12890625 C-0.57054687 1.42636719 -0.28953125 0.72382813 0 0 Z M3 9 C2.01 11.97 1.02 14.94 0 18 C1.98 18 3.96 18 6 18 C5.34 15.03 4.68 12.06 4 9 C3.67 9 3.34 9 3 9 Z " fill="currentColor" transform="translate(811,497)"/>
<path d="M0 0 C1.65 0 3.3 0 5 0 C6.66342837 1.66342837 6.36048097 3.7825709 6.5625 6.0625 C6.64628906 6.98160156 6.73007812 7.90070313 6.81640625 8.84765625 C6.87699219 9.55792969 6.93757812 10.26820313 7 11 C8.546875 10.6596875 8.546875 10.6596875 10.125 10.3125 C14.5875361 9.95261806 16.33437001 10.50070683 20 13 C23.20339406 16.63051327 23.5151924 20.10672792 23.359375 24.78125 C22.80079406 28.22988016 21.23593827 30.38075803 19 33 C16.00261059 34.99825961 15.36652492 35.27550398 12 35.25 C11.319375 35.25515625 10.63875 35.2603125 9.9375 35.265625 C8 35 8 35 5 33 C5 33.66 5 34.32 5 35 C3.35 34.67 1.7 34.34 0 34 C0 22.78 0 11.56 0 0 Z M6 18 C5.56304374 20.44120026 5.56304374 20.44120026 5.6875 23.0625 C5.69136719 23.94035156 5.69523438 24.81820312 5.69921875 25.72265625 C5.79100666 28.19662769 5.79100666 28.19662769 8 30 C10.95746492 30.58345476 10.95746492 30.58345476 14 30 C16.13353917 28.00155751 16.13353917 28.00155751 17 25 C16.78117292 20.76934307 16.36113721 18.54170582 14 15 C10.11319458 14.40202994 8.36996734 14.8740948 6 18 Z " fill="currentColor" transform="translate(630,495)"/>
<path d="M0 0 C2.875 2.5 2.875 2.5 5 5 C5.33 5.33 5.66 5.66 6 6 C6.52536314 11.1330562 6.85685512 15.55221031 4.1875 20.0625 C-0.04802667 23.81396648 -2.39762353 24.30558417 -8 24 C-8.66 23.67 -9.32 23.34 -10 23 C-10.33 26.3 -10.66 29.6 -11 33 C-12.98 33 -14.96 33 -17 33 C-17 22.11 -17 11.22 -17 0 C-14.33333333 0 -11.66666667 0 -9 0 C-5.77509551 -1.61245225 -3.43772273 -0.81573082 0 0 Z M-11 7 C-11.43695626 9.44120026 -11.43695626 9.44120026 -11.3125 12.0625 C-11.30863281 12.94035156 -11.30476563 13.81820312 -11.30078125 14.72265625 C-11.20899334 17.19662769 -11.20899334 17.19662769 -9 19 C-4.90387349 19.48848371 -4.90387349 19.48848371 -1.33203125 17.76171875 C0.34885096 15.53861647 0.40263934 14.26393378 0.375 11.5 C0.38273437 10.7265625 0.39046875 9.953125 0.3984375 9.15625 C-0.09155544 6.50452352 -0.87492355 5.61668496 -3 4 C-6.90056075 3.41491589 -8.61521129 3.86355869 -11 7 Z " fill="currentColor" transform="translate(312,506)"/>
<path d="M0 0 C1.66611905 -0.042721 3.33382885 -0.04063832 5 0 C6 1 6 1 6.09765625 3.50390625 C6.08605469 4.51324219 6.07445312 5.52257812 6.0625 6.5625 C6.05347656 7.57441406 6.04445313 8.58632813 6.03515625 9.62890625 C6.02355469 10.41136719 6.01195312 11.19382812 6 12 C6.598125 11.66613281 7.19625 11.33226562 7.8125 10.98828125 C10.8995759 9.59358446 12.77354008 10.12616711 16 11 C19.10501256 12.84622368 19.83621763 13.50865288 21 17 C21.08021999 18.40824893 21.10765977 19.81997231 21.09765625 21.23046875 C21.09443359 22.03291016 21.09121094 22.83535156 21.08789062 23.66210938 C21.07951172 24.49548828 21.07113281 25.32886719 21.0625 26.1875 C21.05798828 27.03248047 21.05347656 27.87746094 21.04882812 28.74804688 C21.03705403 30.83206155 21.0191189 32.91603977 21 35 C19.33388095 35.042721 17.66617115 35.04063832 16 35 C13.96428714 32.96428714 14.63123456 28.87432194 14.5 26.0625 C14.45708764 20.87297382 14.45708764 20.87297382 13 16 C9.70924004 16.37904208 9.70924004 16.37904208 7 18 C6.76298761 20.85877909 6.57780818 23.69883297 6.4375 26.5625 C6.39431641 27.36880859 6.35113281 28.17511719 6.30664062 29.00585938 C6.20024738 31.00368805 6.09959112 33.0018207 6 35 C4.33388095 35.042721 2.66617115 35.04063832 1 35 C0 34 0 34 -0.11352539 30.76538086 C-0.11336631 29.33185874 -0.10767407 27.89833088 -0.09765625 26.46484375 C-0.0962413 25.71159317 -0.09482635 24.95834259 -0.09336853 24.18226624 C-0.08775376 21.7673044 -0.07519883 19.35243399 -0.0625 16.9375 C-0.0574869 15.30403779 -0.05292366 13.67057414 -0.04882812 12.03710938 C-0.03777954 8.02470415 -0.02050506 4.01236759 0 0 Z " fill="currentColor" transform="translate(595,495)"/>
<path d="M0 0 C3.51414502 1.17138167 4.17375749 1.84558112 6 5 C7.2884631 10.25296493 6.99165712 13.97343679 5 19 C3.08641287 21.27238472 1.64405865 22.67797068 -1 24 C-7.47058824 24.35294118 -7.47058824 24.35294118 -11 22 C-11 25.63 -11 29.26 -11 33 C-12.65 33 -14.3 33 -16 33 C-16 22.11 -16 11.22 -16 0 C-13.03 0.495 -13.03 0.495 -10 1 C-9.34 0.67 -8.68 0.34 -8 0 C-5.09660535 -1.45169732 -3.09125158 -0.72348441 0 0 Z M-8.75 5.375 C-11.24274777 8.6155721 -11.24253109 10.95781512 -11 15 C-10.10168984 17.30230766 -10.10168984 17.30230766 -9 19 C-5.62599422 19.41725678 -5.62599422 19.41725678 -2 19 C0.26935287 16.73064713 0.98872095 15.17978834 1.01953125 11.95703125 C0.68881359 8.53129548 0.48069787 6.48069787 -2 4 C-4.93491782 3.62372848 -6.38556023 3.5172259 -8.75 5.375 Z " fill="currentColor" transform="translate(165,506)"/>
<path d="M0 0 C1.65 0 3.3 0 5 0 C5 11.55 5 23.1 5 35 C3.68 35 2.36 35 1 35 C1 34.34 1 33.68 1 33 C0.2265625 33.495 0.2265625 33.495 -0.5625 34 C-4.47095442 35.60346848 -8.24652081 35.58449306 -12.25 34.25 C-15.23663232 32.1166912 -16.82047229 30.07069678 -17.43359375 26.4140625 C-17.44213853 20.31309263 -17.2086961 16.56944148 -13 12 C-9.49852959 10.8328432 -6.67329964 10.86642547 -3 11 C-2.34 11.33 -1.68 11.66 -1 12 C-0.67 8.04 -0.34 4.08 0 0 Z M-11 17 C-11.99167083 21.32085149 -12.39953591 23.80139226 -11 28 C-9.04286944 30.35843975 -9.04286944 30.35843975 -5.4375 30.5 C-4.303125 30.335 -3.16875 30.17 -2 30 C0.46803687 26.29794469 0.55288088 23.29346556 0 19 C-1.00036981 16.43991037 -1.00036981 16.43991037 -3 15 C-6.7404533 14.438932 -7.77856724 14.85237816 -11 17 Z " fill="currentColor" transform="translate(116,495)"/>
<path d="M0 0 C2.13755592 1.50420602 2.69411964 2.78134767 3.6875 5.1875 C3.91455078 7.29394531 3.91455078 7.29394531 3.8828125 9.515625 C3.87636719 10.31484375 3.86992188 11.1140625 3.86328125 11.9375 C3.84652344 12.7625 3.82976563 13.5875 3.8125 14.4375 C3.80347656 15.27796875 3.79445313 16.1184375 3.78515625 16.984375 C3.76165817 19.05220604 3.72578908 21.11988995 3.6875 23.1875 C2.553125 23.001875 1.41875 22.81625 0.25 22.625 C-0.925625 22.480625 -2.10125 22.33625 -3.3125 22.1875 C-3.6425 22.5175 -3.9725 22.8475 -4.3125 23.1875 C-8.39713295 23.58025317 -10.64017657 23.59674035 -14.1875 21.4375 C-17.3125 18.12867647 -17.3125 18.12867647 -17.3125 15.1875 C-15.49409565 11.04557897 -13.38888734 9.08349411 -9.3125 7.1875 C-6 6.5 -6 6.5 -3.3125 6.1875 C-3.6425 5.5275 -3.9725 4.8675 -4.3125 4.1875 C-7.6125 4.1875 -10.9125 4.1875 -14.3125 4.1875 C-14.3125 2.8675 -14.3125 1.5475 -14.3125 0.1875 C-9.29555732 -2.39698563 -5.2341215 -1.83901566 0 0 Z M-3.3125 11.1875 C-6.31634054 11.8829344 -6.31634054 11.8829344 -9.3125 13.1875 C-10.37151922 15.16672654 -10.37151922 15.16672654 -10.3125 17.1875 C-9.25820314 18.45222065 -9.25820314 18.45222065 -6.875 18.4375 C-5.6065625 18.31375 -5.6065625 18.31375 -4.3125 18.1875 C-2.00578085 15.47200846 -2.00578085 15.47200846 -2.6875 13 C-2.89375 12.401875 -3.1 11.80375 -3.3125 11.1875 Z " fill="currentColor" transform="translate(896.3125,506.8125)"/>
<path d="M0 0 C2.88608014 2.05617727 4.74612659 3.59932452 5.39697266 7.19018555 C5.49215753 9.74872453 5.43644771 12.25536349 5.3125 14.8125 C5.28994141 15.69615234 5.26738281 16.57980469 5.24414062 17.49023438 C5.18547428 19.6608891 5.09579979 21.8306669 5 24 C2.60225255 24.13572155 0.21224755 24.23436868 -2.1875 24.3125 C-3.19780273 24.3753418 -3.19780273 24.3753418 -4.22851562 24.43945312 C-8.20159903 24.5363576 -9.81134358 24.15117501 -12.94921875 21.63671875 C-15 19 -15 19 -15.625 16.5 C-14.67312241 12.69248964 -13.15178738 11.31559889 -10 9 C-6.99947774 8.31258938 -4.07301383 8.07364521 -1 8 C-1.33 6.68 -1.66 5.36 -2 4 C-5.63 4.33 -9.26 4.66 -13 5 C-13 3.68 -13 2.36 -13 1 C-8.72809428 -1.26944991 -4.53700694 -1.70997042 0 0 Z M-8 14 C-9.05901922 15.97922654 -9.05901922 15.97922654 -9 18 C-7.94689723 19.27003323 -7.94689723 19.27003323 -5.5625 19.1875 C-2.83265325 19.26839983 -2.83265325 19.26839983 -1 17 C-0.83312552 14.41645782 -0.83312552 14.41645782 -1 12 C-3.5362041 12 -5.70568355 13.04403481 -8 14 Z " fill="currentColor" transform="translate(724,506)"/>
<path d="M0 0 C3.54053236 3.91945222 3.11620483 7.72168714 3.1484375 12.8359375 C3.17357422 13.77179687 3.19871094 14.70765625 3.22460938 15.671875 C3.2834132 17.97698482 3.31974017 20.28019924 3.3359375 22.5859375 C-1.4140625 22.7109375 -1.4140625 22.7109375 -3.6640625 21.5859375 C-4.3240625 21.9159375 -4.9840625 22.2459375 -5.6640625 22.5859375 C-11.85702367 23.15935983 -11.85702367 23.15935983 -15.0390625 20.8984375 C-16.88328057 18.27397333 -17.58575273 16.79663803 -17.6640625 13.5859375 C-16.34417831 10.43288082 -15.33517192 8.96683744 -12.3515625 7.2734375 C-9.35979389 6.50810134 -6.74009625 6.44286616 -3.6640625 6.5859375 C-3.9940625 5.5959375 -4.3240625 4.6059375 -4.6640625 3.5859375 C-7.9640625 3.5859375 -11.2640625 3.5859375 -14.6640625 3.5859375 C-14.9940625 2.2659375 -15.3240625 0.9459375 -15.6640625 -0.4140625 C-9.93162316 -2.79092759 -5.5592746 -2.95081731 0 0 Z M-9.6640625 11.5859375 C-9.9940625 13.5659375 -10.3240625 15.5459375 -10.6640625 17.5859375 C-8.24760468 17.75281198 -8.24760468 17.75281198 -5.6640625 17.5859375 C-3.37677516 15.74709869 -3.37677516 15.74709869 -3.5390625 12.9609375 C-3.5803125 12.1771875 -3.6215625 11.3934375 -3.6640625 10.5859375 C-5.68857171 10.5859375 -7.68806776 11.18060525 -9.6640625 11.5859375 Z " fill="currentColor" transform="translate(786.6640625,507.4140625)"/>
<path d="M0 0 C3.1402021 3.69435541 2.91361575 6.70862364 3.125 11.5 C-2.155 11.5 -7.435 11.5 -12.875 11.5 C-12.215 13.48 -11.555 15.46 -10.875 17.5 C-7.245 17.17 -3.615 16.84 0.125 16.5 C0.785 18.15 1.445 19.8 2.125 21.5 C-2.22049521 22.9484984 -6.33356966 23.02265295 -10.875 22.5 C-14.73044798 20.50342873 -16.47305092 19.10292362 -18.875 15.5 C-19.61045723 10.53138778 -19.37548991 6.53805315 -17.1875 2 C-12.06420034 -3.53870234 -6.57977077 -3.43292388 0 0 Z M-11.6875 3.875 C-13.0716722 5.43368783 -13.0716722 5.43368783 -12.875 7.5 C-9.575 7.5 -6.275 7.5 -2.875 7.5 C-3.535 5.85 -4.195 4.2 -4.875 2.5 C-8.54771044 2.17164344 -8.54771044 2.17164344 -11.6875 3.875 Z " fill="currentColor" transform="translate(672.875,507.5)"/>
<path d="M0 0 C2.87237845 2.0570203 4.74723096 3.6095378 5.39819336 7.19042969 C5.49210557 9.7487103 5.43643325 12.25566167 5.3125 14.8125 C5.28994141 15.69615234 5.26738281 16.57980469 5.24414062 17.49023438 C5.18547428 19.6608891 5.09579979 21.8306669 5 24 C3.33388095 24.042721 1.66617115 24.04063832 0 24 C-2.02788495 21.97211505 -1.36857244 17.92392018 -1.5 15.125 C-1.72527338 9.48223994 -1.72527338 9.48223994 -3 4 C-6.24983135 5.08784968 -6.24983135 5.08784968 -9 7 C-9.23701239 9.85877909 -9.42219182 12.69883297 -9.5625 15.5625 C-9.60568359 16.36880859 -9.64886719 17.17511719 -9.69335938 18.00585938 C-9.79975262 20.00368805 -9.90040888 22.0018207 -10 24 C-11.66611905 24.042721 -13.33382885 24.04063832 -15 24 C-16.68300669 22.31699331 -16.22809077 20.17991273 -16.31640625 17.87109375 C-16.35830078 16.83662109 -16.40019531 15.80214844 -16.44335938 14.73632812 C-16.48267578 13.64771484 -16.52199219 12.55910156 -16.5625 11.4375 C-16.60568359 10.34501953 -16.64886719 9.25253906 -16.69335938 8.12695312 C-16.79982068 5.41810436 -16.90183516 2.70916008 -17 0 C-14.98177083 0.03255208 -12.96354167 0.06510417 -10.9453125 0.09765625 C-1.57156387 -0.37291346 -1.57156387 -0.37291346 0 0 Z " fill="currentColor" transform="translate(847,506)"/>
<path d="M0 0 C1.98 0 3.96 0 6 0 C6.33 5.94 6.66 11.88 7 18 C8.65 18 10.3 18 12 18 C14.93447357 15.06552643 14.46158423 11.81740544 14.625 7.875 C14.68300781 6.74384766 14.68300781 6.74384766 14.7421875 5.58984375 C14.83651031 3.72696816 14.91934662 1.86351745 15 0 C16.98 0 18.96 0 21 0 C21 7.92 21 15.84 21 24 C16 24 16 24 14 23 C13.34 23.33 12.68 23.66 12 24 C7.84496915 24.47038085 5.75522474 24.53213962 2.2890625 22.08984375 C-0.91820005 17.76058662 -0.56611232 14.4197172 -0.3125 9.1875 C-0.28994141 8.30384766 -0.26738281 7.42019531 -0.24414062 6.50976562 C-0.18547428 4.3391109 -0.09579979 2.1693331 0 0 Z " fill="currentColor" transform="translate(570,506)"/>
<path d="M0 0 C2.85619294 2.06142621 4.74835868 3.6192818 5.39916992 7.19018555 C5.49205282 9.74840957 5.43642894 12.2557507 5.3125 14.8125 C5.28994141 15.69615234 5.26738281 16.57980469 5.24414062 17.49023438 C5.18547428 19.6608891 5.09579979 21.8306669 5 24 C4.05125 23.814375 3.1025 23.62875 2.125 23.4375 C-0.89868793 22.71313368 -0.89868793 22.71313368 -3 24 C-6.78708949 24.35065643 -9.16452324 24.48039914 -12.5 22.5625 C-14.48394971 19.17325257 -14.36045987 16.88355657 -13.73828125 13.0625 C-13 11 -13 11 -10.3125 8.9375 C-7.01582973 8.00448011 -4.40496221 7.75678841 -1 8 C-1.33 7.01 -1.66 6.02 -2 5 C-5.3 5 -8.6 5 -12 5 C-12.33 3.68 -12.66 2.36 -13 1 C-8.2523358 -0.96854369 -4.98886981 -1.36060086 0 0 Z M-8 14 C-8 15.65 -8 17.3 -8 19 C-6.00045254 19.04254356 -3.99958364 19.04080783 -2 19 C-0.64381501 17.87465895 -0.64381501 17.87465895 -0.9375 14.9375 C-0.958125 13.968125 -0.97875 12.99875 -1 12 C-3.35287614 12 -5.79373224 13.24893012 -8 14 Z " fill="currentColor" transform="translate(391,506)"/>
<path d="M0 0 C1.98 0 3.96 0 6 0 C6.26554687 0.60328125 6.53109375 1.2065625 6.8046875 1.828125 C7.15789062 2.62734375 7.51109375 3.4265625 7.875 4.25 C8.39707031 5.43335938 8.39707031 5.43335938 8.9296875 6.640625 C9.90214201 8.78428385 10.94729482 10.89458963 12 13 C13.65 8.71 15.3 4.42 17 0 C18.98 0 20.96 0 23 0 C22.0096385 5.65341912 19.89393093 10.69914813 17.75 16 C17.17572266 17.47726562 17.17572266 17.47726562 16.58984375 18.984375 C13.96228389 25.48736595 11.78728431 30.23260065 5.1875 33.3125 C4.1046875 33.6528125 4.1046875 33.6528125 3 34 C2.67 32.35 2.34 30.7 2 29 C2.99 28.67 3.98 28.34 5 28 C5.33 27.01 5.66 26.02 6 25 C6.66 25 7.32 25 8 25 C6.75901796 17.80230419 4.22803818 11.56313731 1.2421875 4.94140625 C0 2 0 2 0 0 Z " fill="currentColor" transform="translate(397,506)"/>
<path d="M0 0 C1.98 0 3.96 0 6 0 C6.33 6.27 6.66 12.54 7 19 C8.98 18.67 10.96 18.34 13 18 C14.585869 14.828262 14.37866445 11.36486178 14.5625 7.875 C14.60568359 7.12089844 14.64886719 6.36679687 14.69335938 5.58984375 C14.7994832 3.72678112 14.90025001 1.86341476 15 0 C16.98 0 18.96 0 21 0 C21 7.92 21 15.84 21 24 C18.69 23.67 16.38 23.34 14 23 C13.34 23.33 12.68 23.66 12 24 C8.12785818 24.43023798 6.47503629 24.31669086 3.1875 22.125 C0.06600426 19.09268985 0.06600426 19.09268985 -0.11352539 16.12060547 C-0.10828857 15.37697754 -0.10305176 14.63334961 -0.09765625 13.8671875 C-0.09443359 13.06152344 -0.09121094 12.25585938 -0.08789062 11.42578125 C-0.07951172 10.58402344 -0.07113281 9.74226562 -0.0625 8.875 C-0.05798828 8.02550781 -0.05347656 7.17601562 -0.04882812 6.30078125 C-0.03702874 4.20049091 -0.01909306 2.1002367 0 0 Z " fill="currentColor" transform="translate(480,506)"/>
<path d="M0 0 C2.89746546 2.07861652 4.64557604 3.58230416 5.52734375 7.109375 C5.78019771 9.06293161 5.89996724 11.03268915 6 13 C-1.92 13.495 -1.92 13.495 -10 14 C-9.34 15.65 -8.68 17.3 -8 19 C-4.04 19 -0.08 19 4 19 C4 20.32 4 21.64 4 23 C0.28476614 24.85761693 -3.94534791 24.4415342 -8 24 C-11.89009228 22.19388573 -13.48981747 20.99818321 -15.4375 17.1875 C-16.28455779 12.38750588 -15.76514068 8.68330949 -13.75 4.25 C-9.75768836 -0.8829721 -6.24175529 -1.78335865 0 0 Z M-8 4 C-8.66 5.65 -9.32 7.3 -10 9 C-6.7 9 -3.4 9 0 9 C-0.57125354 5.25724788 -0.57125354 5.25724788 -2 4 C-3.99958364 3.95919217 -6.00045254 3.95745644 -8 4 Z " fill="currentColor" transform="translate(140,506)"/>
<path d="M0 0 C2.69105198 2.17574416 4.45532928 3.91065856 6 7 C6 8.98 6 10.96 6 13 C0.72 13 -4.56 13 -10 13 C-9.34 14.65 -8.68 16.3 -8 18 C-4.04 18.33 -0.08 18.66 4 19 C4 20.32 4 21.64 4 23 C0.30238554 24.84880723 -3.95589041 24.33169353 -8 24 C-11.09046673 22.94792622 -12.34676902 22.0763465 -14.03125 19.30078125 C-16.48168704 13.92460689 -16.00893955 10.47892603 -14 5 C-10.85302084 -0.33618206 -5.914046 -1.06060864 0 0 Z M-8 4 C-8.66 5.65 -9.32 7.3 -10 9 C-6.37 9 -2.74 9 1 9 C-0.57836298 5.31622777 -0.57836298 5.31622777 -2 4 C-3.99958364 3.95919217 -6.00045254 3.95745644 -8 4 Z " fill="currentColor" transform="translate(77,506)"/>
<path d="M0 0 C3.23814032 3.05310373 3.82251851 6.70010223 4.1875 11.0625 C2.19133446 13.05866554 -1.62951963 12.47233427 -4.375 12.625 C-5.08591797 12.66818359 -5.79683594 12.71136719 -6.52929688 12.75585938 C-8.29011912 12.86221777 -10.0512832 12.96288846 -11.8125 13.0625 C-11.26236966 15.12530773 -11.26236966 15.12530773 -9.8125 17.0625 C-6.9338065 17.76785611 -6.9338065 17.76785611 -3.6875 17.8125 C-2.59179688 17.86921875 -1.49609375 17.9259375 -0.3671875 17.984375 C0.47585938 18.01015625 1.31890625 18.0359375 2.1875 18.0625 C2.1875 19.3825 2.1875 20.7025 2.1875 22.0625 C-3.26244787 23.87914929 -8.06600778 23.91986891 -13.25 21.375 C-16.03288324 18.86361756 -17.06566886 17.71367445 -17.8125 14.0625 C-17.79228769 9.09027065 -16.96717303 5.03505123 -13.8125 1.0625 C-9.67077583 -2.04379313 -4.71845378 -1.57281793 0 0 Z M-9.8125 3.0625 C-10.4725 4.7125 -11.1325 6.3625 -11.8125 8.0625 C-8.5125 8.0625 -5.2125 8.0625 -1.8125 8.0625 C-2.38375354 4.31974788 -2.38375354 4.31974788 -3.8125 3.0625 C-5.81208364 3.02169217 -7.81295254 3.01995644 -9.8125 3.0625 Z " fill="currentColor" transform="translate(273.8125,506.9375)"/>
<path d="M0 0 C3.28931514 1.72689045 3.8140267 2.4420801 5 6 C5.08021999 7.40824893 5.10765977 8.81997231 5.09765625 10.23046875 C5.09443359 11.03291016 5.09121094 11.83535156 5.08789062 12.66210938 C5.07951172 13.49548828 5.07113281 14.32886719 5.0625 15.1875 C5.05798828 16.03248047 5.05347656 16.87746094 5.04882812 17.74804688 C5.03705403 19.83206155 5.0191189 21.91603977 5 24 C3.68 24 2.36 24 1 24 C1 23.34 1 22.68 1 22 C0.484375 22.33 -0.03125 22.66 -0.5625 23 C-3.91402596 24.37498501 -6.40965387 24.38467994 -10 24 C-13.10639164 21.92907224 -13.84874457 20.71090051 -14.625 17.0625 C-13.90663848 13.54252855 -12.66642888 12.16216439 -9.80078125 10.03515625 C-6.95615241 8.39995746 -4.19808809 7.70357938 -1 7 C-1.33 6.34 -1.66 5.68 -2 5 C-4.97 5 -7.94 5 -11 5 C-11.33 3.68 -11.66 2.36 -12 1 C-7.95743997 -0.34752001 -4.22947847 -0.43594986 0 0 Z M-8 14 C-8 15.65 -8 17.3 -8 19 C-6.20800528 19.78282648 -6.20800528 19.78282648 -4 20 C-1.65373496 18.99033641 -1.65373496 18.99033641 0 17 C0.33425735 14.37374861 0.33425735 14.37374861 0 12 C-2.63576683 12 -5.48513411 13.26840265 -8 14 Z " fill="currentColor" transform="translate(434,506)"/>
<path d="M0 0 C2.9375 2.4375 2.9375 2.4375 5 5 C5.33 5.33 5.66 5.66 6 6 C6 8.31 6 10.62 6 13 C0.72 13 -4.56 13 -10 13 C-9.34 14.98 -8.68 16.96 -8 19 C-4.04 19 -0.08 19 4 19 C4.33 19.99 4.66 20.98 5 22 C0.75417853 24.83054764 -3.01484837 24.77409187 -8 24 C-11.62259904 22.1162485 -13.68975631 19.93073106 -15 16 C-15.34531267 10.64765358 -15.47574585 7.34468232 -12 3 C-8.68367444 -0.56197931 -4.63410042 -1.02060545 0 0 Z M-7 4 C-8.9354148 6.39056942 -8.9354148 6.39056942 -10 9 C-6.37 9 -2.74 9 1 9 C0.42874646 5.25724788 0.42874646 5.25724788 -1 4 C-3.91538029 3.49957854 -3.91538029 3.49957854 -7 4 Z " fill="currentColor" transform="translate(335,506)"/>
<path d="M0 0 C0.75023437 -0.04898437 1.50046875 -0.09796875 2.2734375 -0.1484375 C6.05079389 0.6923694 7.37710082 2.26101006 9.625 5.375 C10.21837501 8.67234383 10.09921993 11.85109335 9.9375 15.1875 C9.91494141 16.07115234 9.89238281 16.95480469 9.86914062 17.86523438 C9.81047428 20.0358891 9.72079979 22.2056669 9.625 24.375 C8.67625 24.189375 7.7275 24.00375 6.75 23.8125 C3.72631207 23.08813368 3.72631207 23.08813368 1.625 24.375 C-4.65396996 24.83165236 -4.65396996 24.83165236 -7.25 23.1875 C-8.71051279 20.83445162 -9.17713778 19.1450711 -9.375 16.375 C-8.73828125 13.85546875 -8.73828125 13.85546875 -7.375 11.375 C-4.7734375 10.01171875 -4.7734375 10.01171875 -1.75 9.0625 C-0.74710938 8.73636719 0.25578125 8.41023437 1.2890625 8.07421875 C2.44535156 7.72810547 2.44535156 7.72810547 3.625 7.375 C3.625 6.385 3.625 5.395 3.625 4.375 C-0.005 4.705 -3.635 5.035 -7.375 5.375 C-7.375 4.055 -7.375 2.735 -7.375 1.375 C-4.69796769 0.4826559 -2.78116916 0.12339658 0 0 Z M-3.375 14.375 C-3.375 16.025 -3.375 17.675 -3.375 19.375 C-0.36468256 20.30923645 0.49150268 20.41949911 3.625 19.375 C3.955 17.065 4.285 14.755 4.625 12.375 C1.98923317 12.375 -0.86013411 13.64340265 -3.375 14.375 Z " fill="currentColor" transform="translate(182.375,505.625)"/>
<path d="M0 0 C8.25 0 16.5 0 25 0 C25 1.65 25 3.3 25 5 C22.03 5 19.06 5 16 5 C16 14.24 16 23.48 16 33 C14.35 33 12.7 33 11 33 C10 32 10 32 9.88647461 29.40795898 C9.89171143 28.28204346 9.89694824 27.15612793 9.90234375 25.99609375 C9.90556641 24.78115234 9.90878906 23.56621094 9.91210938 22.31445312 C9.92048828 21.03505859 9.92886719 19.75566406 9.9375 18.4375 C9.94201172 17.15423828 9.94652344 15.87097656 9.95117188 14.54882812 C9.96300455 11.36583978 9.97948932 8.18294238 10 5 C6.7 5 3.4 5 0 5 C0 3.35 0 1.7 0 0 Z " fill="currentColor" transform="translate(456,497)"/>
<path d="M0 0 C7.92 0 15.84 0 24 0 C24.33 1.65 24.66 3.3 25 5 C21.7 5 18.4 5 15 5 C15 14.24 15 23.48 15 33 C13.35 33 11.7 33 10 33 C9 32 9 32 8.88647461 29.40795898 C8.89171143 28.28204346 8.89694824 27.15612793 8.90234375 25.99609375 C8.90556641 24.78115234 8.90878906 23.56621094 8.91210938 22.31445312 C8.92048828 21.03505859 8.92886719 19.75566406 8.9375 18.4375 C8.94201172 17.15423828 8.94652344 15.87097656 8.95117188 14.54882812 C8.96300455 11.36583978 8.97948932 8.18294238 9 5 C6.03 5 3.06 5 0 5 C0 3.35 0 1.7 0 0 Z " fill="currentColor" transform="translate(235,497)"/>
<path d="M0 0 C3 2 3 2 4 5 C4.0806622 6.48123547 4.10761193 7.96582204 4.09765625 9.44921875 C4.09443359 10.29677734 4.09121094 11.14433594 4.08789062 12.01757812 C4.07951172 12.89865234 4.07113281 13.77972656 4.0625 14.6875 C4.05798828 15.58017578 4.05347656 16.47285156 4.04882812 17.39257812 C4.03704983 19.59511987 4.02060164 21.79752599 4 24 C2.35 23.67 0.7 23.34 -1 23 C-1.06058594 21.87980469 -1.12117187 20.75960937 -1.18359375 19.60546875 C-1.26801424 18.13280016 -1.35266149 16.66014456 -1.4375 15.1875 C-1.47681641 14.44951172 -1.51613281 13.71152344 -1.55664062 12.95117188 C-1.74381035 9.76928658 -1.98720793 7.03837622 -3 4 C-5.02045442 4.60183749 -7.02111039 5.27306096 -9 6 C-10.585869 9.171738 -10.37866445 12.63513822 -10.5625 16.125 C-10.60568359 16.87910156 -10.64886719 17.63320313 -10.69335938 18.41015625 C-10.7994832 20.27321888 -10.90025001 22.13658524 -11 24 C-12.65 24 -14.3 24 -16 24 C-16.33 16.08 -16.66 8.16 -17 0 C-14.36 0 -11.72 0 -9 0 C-5.46627283 -1.17790906 -3.59454905 -0.82375082 0 0 Z " fill="currentColor" transform="translate(213,506)"/>
<path d="M0 0 C8.25 0 16.5 0 25 0 C25 1.65 25 3.3 25 5 C21.7 5 18.4 5 15 5 C15 14.24 15 23.48 15 33 C13.35 33 11.7 33 10 33 C10 23.76 10 14.52 10 5 C6.7 5 3.4 5 0 5 C0 3.35 0 1.7 0 0 Z " fill="currentColor" transform="translate(40,497)"/>
<path d="M0 0 C0.78503906 -0.00257813 1.57007813 -0.00515625 2.37890625 -0.0078125 C4.4375 0.125 4.4375 0.125 6.4375 1.125 C6.1075 2.445 5.7775 3.765 5.4375 5.125 C3.45182292 5.05989583 1.46614583 4.99479167 -0.51953125 4.9296875 C-2.87609719 4.99245538 -2.87609719 4.99245538 -5.5625 7.125 C-5.96464757 9.5260441 -5.96464757 9.5260441 -5.8125 12.1875 C-5.79703125 13.08597656 -5.7815625 13.98445312 -5.765625 14.91015625 C-5.80309115 17.09759999 -5.80309115 17.09759999 -4.5625 18.125 C-2.88066052 18.35787008 -1.1912584 18.53764166 0.5 18.6875 C1.41910156 18.77128906 2.33820313 18.85507812 3.28515625 18.94140625 C4.35056641 19.03228516 4.35056641 19.03228516 5.4375 19.125 C5.7675 20.445 6.0975 21.765 6.4375 23.125 C2.71349129 24.36633624 -0.69426 24.66611486 -4.5625 24.125 C-8.31462276 22.10997111 -10.19894095 20.67033858 -12.5625 17.125 C-13.22785838 13.05580822 -13.48527334 8.89956411 -11.546875 5.171875 C-8.13772178 0.94123907 -5.23538638 -0.01725004 0 0 Z " fill="currentColor" transform="translate(369.5625,505.875)"/>
<path d="M0 0 C1.67542976 0.28604898 3.34385343 0.61781233 5 1 C4.67 2.65 4.34 4.3 4 6 C2.35 6 0.7 6 -1 6 C-2.18031238 9.84841348 -2.33235351 13.758279 -2.5625 17.75 C-2.60568359 18.44738281 -2.64886719 19.14476562 -2.69335938 19.86328125 C-2.79889596 21.57531922 -2.8998991 23.28763561 -3 25 C-4.66611905 25.042721 -6.33382885 25.04063832 -8 25 C-9 24 -9 24 -9.11352539 21.77514648 C-9.10828857 20.81680908 -9.10305176 19.85847168 -9.09765625 18.87109375 C-9.09443359 17.83662109 -9.09121094 16.80214844 -9.08789062 15.73632812 C-9.07951172 14.64771484 -9.07113281 13.55910156 -9.0625 12.4375 C-9.05798828 11.34501953 -9.05347656 10.25253906 -9.04882812 9.12695312 C-9.03699826 6.41791505 -9.02051543 3.70898401 -9 1 C-6.33333333 1 -3.66666667 1 -1 1 C-0.67 0.67 -0.34 0.34 0 0 Z " fill="currentColor" transform="translate(289,505)"/>
<path d="M0 0 C4.33333333 0 8.66666667 0 13 0 C13 1.65 13 3.3 13 5 C12.195625 5.12375 11.39125 5.2475 10.5625 5.375 C9.2940625 5.684375 9.2940625 5.684375 8 6 C6.414131 9.171738 6.62133555 12.63513822 6.4375 16.125 C6.39431641 16.87910156 6.35113281 17.63320313 6.30664062 18.41015625 C6.2005168 20.27321888 6.09974999 22.13658524 6 24 C4.33388095 24.042721 2.66617115 24.04063832 1 24 C0 23 0 23 -0.11352539 20.77514648 C-0.10828857 19.81680908 -0.10305176 18.85847168 -0.09765625 17.87109375 C-0.09443359 16.83662109 -0.09121094 15.80214844 -0.08789062 14.73632812 C-0.07951172 13.64771484 -0.07113281 12.55910156 -0.0625 11.4375 C-0.05798828 10.34501953 -0.05347656 9.25253906 -0.04882812 8.12695312 C-0.03699826 5.41791505 -0.02051543 2.70898401 0 0 Z " fill="currentColor" transform="translate(344,506)"/>
<path d="M0 0 C2.97 0.495 2.97 0.495 6 1 C8.34214207 0.7355646 10.68025766 0.41755362 13 0 C13 1.65 13 3.3 13 5 C12.030625 5.268125 11.06125 5.53625 10.0625 5.8125 C9.051875 6.204375 8.04125 6.59625 7 7 C5.84429296 10.46712111 5.67164707 13.5414956 5.4375 17.1875 C5.35371094 18.45980469 5.26992187 19.73210938 5.18359375 21.04296875 C5.12300781 22.01878906 5.06242187 22.99460937 5 24 C3.35 24 1.7 24 0 24 C0 16.08 0 8.16 0 0 Z " fill="currentColor" transform="translate(86,506)"/>
<path d="M0 0 C0.66 0.99 1.32 1.98 2 3 C-0.31 3.66 -2.62 4.32 -5 5 C-5.33 6.65 -5.66 8.3 -6 10 C-5.1028125 10.433125 -5.1028125 10.433125 -4.1875 10.875 C-2 12 -2 12 1 14 C-2.04983996 15.52491998 -4.6423369 15.23562548 -8 15 C-10.4309584 13.46039301 -10.88437865 12.33797009 -11.8125 9.625 C-12.04772641 6.3318302 -11.77232489 4.80618108 -10 2 C-3.93103448 -1.31034483 -3.93103448 -1.31034483 0 0 Z " fill="currentColor" transform="translate(185,515)"/>
<path d="M0 0 C4.53904366 -0.02291161 9.07788802 -0.04283781 13.61694336 -0.05493164 C15.16219766 -0.0599714 16.70744716 -0.0668032 18.25268555 -0.07543945 C20.46925029 -0.08752076 22.68575218 -0.09323173 24.90234375 -0.09765625 C25.5971434 -0.10281754 26.29194305 -0.10797882 27.00779724 -0.11329651 C28.6722933 -0.11349277 30.33665499 -0.06189129 32 0 C33 1 33 1 33.09765625 3.94140625 C33.08605469 5.13636719 33.07445312 6.33132813 33.0625 7.5625 C33.05347656 8.76003906 33.04445312 9.95757812 33.03515625 11.19140625 C33.02355469 12.11824219 33.01195312 13.04507812 33 14 C32.67 14 32.34 14 32 14 C31.67 10.04 31.34 6.08 31 2 C21.43 2 11.86 2 2 2 C2 8.6 2 15.2 2 22 C1.67 22 1.34 22 1 22 C0.67 14.74 0.34 7.48 0 0 Z " fill="currentColor" transform="translate(39,307)"/>
<path d="M0 0 C0 0.99 0 1.98 0 3 C0.66 3.33 1.32 3.66 2 4 C0.68 4.33 -0.64 4.66 -2 5 C-2.33 6.65 -2.66 8.3 -3 10 C-1.02 10 0.96 10 3 10 C3 13 3 13 2 15 C-4.27586207 15.48275862 -4.27586207 15.48275862 -7.4375 13.375 C-9.51291762 10.22036523 -9.75647674 8.70673603 -9 5 C-6.44801086 1.93601304 -4.12003688 0 0 0 Z " fill="currentColor" transform="translate(429,515)"/>
<path d="M0 0 C1.98 0 3.96 0 6 0 C5.50269348 4.97306516 4.44697666 8.63799813 2 13 C0.35 13 -1.3 13 -3 13 C-2.01 8.71 -1.02 4.42 0 0 Z " fill="currentColor" transform="translate(222,522)"/>
<path d="M0 0 C0.66 0 1.32 0 2 0 C2 8.58 2 17.16 2 26 C2.99 26.33 3.98 26.66 5 27 C3.0625 27.5625 3.0625 27.5625 1 28 C0 27 0 27 -0.11352539 24.40795898 C-0.10828857 23.28204346 -0.10305176 22.15612793 -0.09765625 20.99609375 C-0.09443359 19.78115234 -0.09121094 18.56621094 -0.08789062 17.31445312 C-0.07951172 16.03505859 -0.07113281 14.75566406 -0.0625 13.4375 C-0.05798828 12.15423828 -0.05347656 10.87097656 -0.04882812 9.54882812 C-0.03699545 6.36583978 -0.02051068 3.18294238 0 0 Z " fill="currentColor" transform="translate(244,502)"/>
<path d="M0 0 C2.625 0.9375 2.625 0.9375 5 2 C5.042721 3.66611905 5.04063832 5.33382885 5 7 C4 8 4 8 1.5 8.125 C-1 8 -1 8 -2 7 C-2.04080783 5.00041636 -2.04254356 2.99954746 -2 1 C-1.34 0.67 -0.68 0.34 0 0 Z " fill="currentColor" transform="translate(905,522)"/>
<path d="M0 0 C0.66 0.33 1.32 0.66 2 1 C2.90238747 3.70716242 3.11851302 5.23776768 3.09765625 8.01171875 C3.09443359 8.76904297 3.09121094 9.52636719 3.08789062 10.30664062 C3.07951172 11.09232422 3.07113281 11.87800781 3.0625 12.6875 C3.05798828 13.48478516 3.05347656 14.28207031 3.04882812 15.10351562 C3.0370585 17.06904257 3.01912348 19.03453085 3 21 C1.68 21 0.36 21 -1 21 C-1 20.34 -1 19.68 -1 19 C-0.34 19 0.32 19 1 19 C0.67 12.73 0.34 6.46 0 0 Z " fill="currentColor" transform="translate(537,509)"/>
<path d="M0 0 C0.33 0 0.66 0 1 0 C1 5.28 1 10.56 1 16 C-0.65 16 -2.3 16 -4 16 C-3.67 15.34 -3.34 14.68 -3 14 C-2.34 14 -1.68 14 -1 14 C-1.01160156 13.15695312 -1.02320313 12.31390625 -1.03515625 11.4453125 C-1.04417969 10.34960938 -1.05320312 9.25390625 -1.0625 8.125 C-1.07410156 7.03445313 -1.08570313 5.94390625 -1.09765625 4.8203125 C-1 2 -1 2 0 0 Z " fill="currentColor" transform="translate(349,514)"/>
<path d="M0 0 C0.66 0.33 1.32 0.66 2 1 C-1.96 4.96 -5.92 8.92 -10 13 C-10.66 12.67 -11.32 12.34 -12 12 C-8.39424999 7.41086363 -4.52615993 3.67832017 0 0 Z " fill="currentColor" transform="translate(580,315)"/>
<path d="M0 0 C0 3 0 3 -2.1875 5.48046875 C-3.115625 6.37378906 -4.04375 7.26710938 -5 8.1875 C-5.928125 9.08855469 -6.85625 9.98960937 -7.8125 10.91796875 C-8.534375 11.60503906 -9.25625 12.29210937 -10 13 C-10 9.45595664 -9.39010515 8.89732095 -7.125 6.3125 C-6.59132813 5.68988281 -6.05765625 5.06726563 -5.5078125 4.42578125 C-4 3 -4 3 -2 3 C-2 2.34 -2 1.68 -2 1 C-1.34 0.67 -0.68 0.34 0 0 Z " fill="currentColor" transform="translate(824,314)"/>
<path d="M0 0 C0.33 0 0.66 0 1 0 C1 3.96 1 7.92 1 12 C-0.98 12 -2.96 12 -5 12 C-5 10.35 -5 8.7 -5 7 C-4.34 6.67 -3.68 6.34 -3 6 C-3 7.32 -3 8.64 -3 10 C-2.34 10 -1.68 10 -1 10 C-0.67 6.7 -0.34 3.4 0 0 Z " fill="currentColor" transform="translate(300,527)"/>
<path d="M0 0 C1.98 0 3.96 0 6 0 C6 1.32 6 2.64 6 4 C3.47524538 5.26237731 1.68799534 5.09856404 -1.125 5.0625 C-2.03507812 5.05347656 -2.94515625 5.04445313 -3.8828125 5.03515625 C-4.58148438 5.02355469 -5.28015625 5.01195312 -6 5 C-6 4.67 -6 4.34 -6 4 C-3.36 4 -0.72 4 2 4 C2 3.34 2 2.68 2 2 C1.34 1.34 0.68 0.68 0 0 Z " fill="currentColor" transform="translate(75,525)"/>
<path d="M0 0 C0.66 0.33 1.32 0.66 2 1 C-1.63 4.63 -5.26 8.26 -9 12 C-9 7.8407692 -6.75316432 5.85455565 -4 3 C-1.6875 1.125 -1.6875 1.125 0 0 Z " fill="currentColor" transform="translate(283,372)"/>
<path d="M0 0 C0.99 0.33 1.98 0.66 3 1 C2.030625 1.825 1.06125 2.65 0.0625 3.5 C-3.61012754 7.1121372 -3.82612422 9.95760232 -4 15 C-4.33 15 -4.66 15 -5 15 C-5.76681614 7.33183857 -5.76681614 7.33183857 -3.88671875 4.06640625 C-2.5 2.4375 -2.5 2.4375 0 0 Z " fill="currentColor" transform="translate(362,507)"/>
<path d="M0 0 C0.66 0 1.32 0 2 0 C2 1.32 2 2.64 2 4 C-0.88211302 4.96070434 -2.69850044 5.10581883 -5.6875 5.0625 C-6.89986328 5.04896484 -6.89986328 5.04896484 -8.13671875 5.03515625 C-9.05904297 5.01775391 -9.05904297 5.01775391 -10 5 C-10 4.67 -10 4.34 -10 4 C-7.36 4 -4.72 4 -2 4 C-1.34 2.68 -0.68 1.36 0 0 Z " fill="currentColor" transform="translate(274,525)"/>
<path d="M0 0 C0.66 0.33 1.32 0.66 2 1 C-0.97 3.97 -3.94 6.94 -7 10 C-7.66 9.67 -8.32 9.34 -9 9 C-6.31941902 5.42589203 -3.57410797 2.68058098 0 0 Z " fill="currentColor" transform="translate(453,315)"/>
<path d="M0 0 C-0.33 1.32 -0.66 2.64 -1 4 C-1 3.01 -1 2.02 -1 1 C-1.763125 1.474375 -2.52625 1.94875 -3.3125 2.4375 C-6 4 -6 4 -9 5 C-8.6875 3.0625 -8.6875 3.0625 -8 1 C-5.07175348 0.02391783 -3.04386724 -0.08226668 0 0 Z " fill="currentColor" transform="translate(357,506)"/>
</svg>
